# xmcd
#
# Track frame offsets: 
#        150
#        18826
#        31644
#        48934
#        62415
#        77257
#        92759
#        107857
#        124824
#        140142
#
# Disc length: 2197 seconds
#
# Revision: 0
# Processed by: cddbd v1.5.2PL0 Copyright (c) Steve Scherf et al.
# Submitted via: ExactAudioCopyFreeDBPlugin 1.0
#
DISCID=7308930a
DTITLE=Jeff Austin - The Simple Truth
DYEAR=2015
DGENRE=Americana
TTITLE0=What the Night Brings
TTITLE1=The Simple Truth
TTITLE2=Scrapbook Pages
TTITLE3=Fiddling Around
TTITLE4=15 Steps
TTITLE5=Over and Over
TTITLE6=Gatling Gun
TTITLE7=Run Down
TTITLE8=Shake Me Up
TTITLE9=Falling Stars
EXTD=
EXTT0=
EXTT1=
EXTT2=
EXTT3=
EXTT4=
EXTT5=
EXTT6=
EXTT7=
EXTT8=
EXTT9=
PLAYORDER=
